<?xml version="1.0" encoding="UTF-8" standalone="no"?>
<svg
   xmlns:dc="http://purl.org/dc/elements/1.1/"
   xmlns:cc="http://creativecommons.org/ns#"
   xmlns:rdf="http://www.w3.org/1999/02/22-rdf-syntax-ns#"
   xmlns:svg="http://www.w3.org/2000/svg"
   xmlns="http://www.w3.org/2000/svg"
   xmlns:sodipodi="http://sodipodi.sourceforge.net/DTD/sodipodi-0.dtd"
   xmlns:inkscape="http://www.inkscape.org/namespaces/inkscape"
   class="icon icon-tabler icon-tabler-folders"
   width="24"
   height="24"
   viewBox="0 0 24 24"
   stroke-width="1"
   stroke="currentColor"
   fill="none"
   stroke-linecap="round"
   stroke-linejoin="round"
   id="svg2"
   version="1.1"
   inkscape:version="0.91 r13725"
   sodipodi:docname="folders.svg">
  <metadata
     id="metadata14">
    <rdf:RDF>
      <cc:Work
         rdf:about="">
        <dc:format>image/svg+xml</dc:format>
        <dc:type
           rdf:resource="http://purl.org/dc/dcmitype/StillImage" />
      </cc:Work>
    </rdf:RDF>
  </metadata>
  <defs
     id="defs12" />
  <sodipodi:namedview
     pagecolor="#ffffff"
     bordercolor="#666666"
     borderopacity="1"
     objecttolerance="10"
     gridtolerance="10"
     guidetolerance="10"
     inkscape:pageopacity="0"
     inkscape:pageshadow="2"
     inkscape:window-width="1362"
     inkscape:window-height="693"
     id="namedview10"
     showgrid="false"
     inkscape:zoom="9.8333333"
     inkscape:cx="8.9941889"
     inkscape:cy="9.3559322"
     inkscape:window-x="0"
     inkscape:window-y="73"
     inkscape:window-maximized="0"
     inkscape:current-layer="svg2" />
  <path
     d="m 9.4067795,3.0847458 2.9999995,0 2,2 5,0 a 2,2 0 0 1 2,2 l 0,7.0000002 a 2,2 0 0 1 -2,2 l -9.9999995,0 a 2,2 0 0 1 -2,-2 l 0,-9.0000002 a 2,2 0 0 1 2,-2"
     id="path6"
     inkscape:connector-curvature="0"
     style="stroke:#ffffff;stroke-opacity:1" />
  <path
     d="m 17.406779,16.084746 0,2 a 2,2 0 0 1 -2,2 l -9.9999995,0 a 2,2 0 0 1 -2,-2 l 0,-9.0000001 a 2,2 0 0 1 2,-2.0000001 l 2,0"
     id="path8"
     inkscape:connector-curvature="0"
     style="stroke:#ffffff;stroke-opacity:1" />
</svg>
