<?xml version="1.0" encoding="UTF-8" standalone="no"?>
<svg
   xmlns:dc="http://purl.org/dc/elements/1.1/"
   xmlns:cc="http://creativecommons.org/ns#"
   xmlns:rdf="http://www.w3.org/1999/02/22-rdf-syntax-ns#"
   xmlns:svg="http://www.w3.org/2000/svg"
   xmlns="http://www.w3.org/2000/svg"
   xmlns:sodipodi="http://sodipodi.sourceforge.net/DTD/sodipodi-0.dtd"
   xmlns:inkscape="http://www.inkscape.org/namespaces/inkscape"
   class="icon icon-tabler icon-tabler-news"
   width="24"
   height="24"
   viewBox="0 0 24 24"
   stroke-width="1"
   stroke="currentColor"
   fill="none"
   stroke-linecap="round"
   stroke-linejoin="round"
   id="svg2"
   version="1.1"
   inkscape:version="0.91 r13725"
   sodipodi:docname="news.svg">
  <metadata
     id="metadata18">
    <rdf:RDF>
      <cc:Work
         rdf:about="">
        <dc:format>image/svg+xml</dc:format>
        <dc:type
           rdf:resource="http://purl.org/dc/dcmitype/StillImage" />
        <dc:title></dc:title>
      </cc:Work>
    </rdf:RDF>
  </metadata>
  <defs
     id="defs16" />
  <sodipodi:namedview
     pagecolor="#ffffff"
     bordercolor="#666666"
     borderopacity="1"
     objecttolerance="10"
     gridtolerance="10"
     guidetolerance="10"
     inkscape:pageopacity="0"
     inkscape:pageshadow="2"
     inkscape:window-width="1362"
     inkscape:window-height="693"
     id="namedview14"
     showgrid="false"
     inkscape:zoom="9.8333333"
     inkscape:cx="12.610169"
     inkscape:cy="10.881356"
     inkscape:window-x="0"
     inkscape:window-y="73"
     inkscape:window-maximized="0"
     inkscape:current-layer="svg2" />
  <path
     d="m 16.305086,6.4067797 3,0 a 1,1 0 0 1 1,0.9999997 l 0,10.9999996 a 2,2 0 0 1 -4,0 l 0,-12.9999993 a 1,1 0 0 0 -1,-1 l -10.0000008,0 a 1,1 0 0 0 -1,1 l 0,11.9999993 a 3,3 0 0 0 3,3 l 11.0000008,0"
     id="path6"
     inkscape:connector-curvature="0"
     style="stroke:#ffffff;stroke-opacity:1" />
  <line
     x1="7.8983059"
     y1="8.4067793"
     x2="11.898306"
     y2="8.4067793"
     id="line8"
     style="stroke:#ffffff;stroke-opacity:1" />
  <line
     x1="7.8983059"
     y1="12.406779"
     x2="11.898306"
     y2="12.406779"
     id="line10"
     style="stroke:#ffffff;stroke-opacity:1" />
  <line
     x1="7.8983059"
     y1="16.40678"
     x2="11.898306"
     y2="16.40678"
     id="line12"
     style="stroke:#ffffff;stroke-opacity:1" />
</svg>
