<?xml version="1.0" encoding="UTF-8" standalone="no"?>
<svg
   xmlns:dc="http://purl.org/dc/elements/1.1/"
   xmlns:cc="http://creativecommons.org/ns#"
   xmlns:rdf="http://www.w3.org/1999/02/22-rdf-syntax-ns#"
   xmlns:svg="http://www.w3.org/2000/svg"
   xmlns="http://www.w3.org/2000/svg"
   xmlns:sodipodi="http://sodipodi.sourceforge.net/DTD/sodipodi-0.dtd"
   xmlns:inkscape="http://www.inkscape.org/namespaces/inkscape"
   class="icon icon-tabler icon-tabler-settings"
   width="24"
   height="24"
   viewBox="0 0 24 24"
   stroke-width="1"
   stroke="currentColor"
   fill="none"
   stroke-linecap="round"
   stroke-linejoin="round"
   id="svg2"
   version="1.1"
   inkscape:version="0.91 r13725"
   sodipodi:docname="settings.svg">
  <metadata
     id="metadata14">
    <rdf:RDF>
      <cc:Work
         rdf:about="">
        <dc:format>image/svg+xml</dc:format>
        <dc:type
           rdf:resource="http://purl.org/dc/dcmitype/StillImage" />
      </cc:Work>
    </rdf:RDF>
  </metadata>
  <defs
     id="defs12" />
  <sodipodi:namedview
     pagecolor="#ffffff"
     bordercolor="#666666"
     borderopacity="1"
     objecttolerance="10"
     gridtolerance="10"
     guidetolerance="10"
     inkscape:pageopacity="0"
     inkscape:pageshadow="2"
     inkscape:window-width="1362"
     inkscape:window-height="693"
     id="namedview10"
     showgrid="false"
     inkscape:zoom="9.8333333"
     inkscape:cx="11.898305"
     inkscape:cy="10.779661"
     inkscape:window-x="0"
     inkscape:window-y="73"
     inkscape:window-maximized="0"
     inkscape:current-layer="svg2" />
  <path
     d="m 10.325,4.418695 c 0.426,-1.756 2.924,-1.756 3.35,0 a 1.724,1.724 0 0 0 2.573,1.066 c 1.543,-0.94 3.31,0.826 2.37,2.37 a 1.724,1.724 0 0 0 1.065,2.572 c 1.756,0.426 1.756,2.924 0,3.35 a 1.724,1.724 0 0 0 -1.066,2.573 c 0.94,1.543 -0.826,3.31 -2.37,2.37 a 1.724,1.724 0 0 0 -2.572,1.065 c -0.426,1.756 -2.924,1.756 -3.35,0 a 1.724,1.724 0 0 0 -2.5730004,-1.066 c -1.543,0.94 -3.31,-0.826 -2.37,-2.37 a 1.724,1.724 0 0 0 -1.065,-2.572 c -1.756,-0.426 -1.756,-2.924 0,-3.35 a 1.724,1.724 0 0 0 1.066,-2.573 c -0.94,-1.543 0.826,-3.31 2.37,-2.37 1,0.608 2.2960004,0.07 2.5720004,-1.065 z"
     id="path6"
     inkscape:connector-curvature="0"
     style="stroke:#ffffff;stroke-opacity:1" />
  <circle
     cx="12"
     cy="12.101694"
     r="3"
     id="circle8"
     style="stroke:#ffffff;stroke-opacity:1" />
</svg>
